<svg width="680" height="420" viewBox="0 0 680 420" xmlns="http://www.w3.org/2000/svg">
<style>
  @import url('https://fonts.googleapis.com/css2?family=VT323&amp;family=Share+Tech+Mono&amp;display=swap');
  .vt { font-family: 'VT323', monospace; }
  .mono { font-family: 'Share Tech Mono', monospace; }
</style>

<rect width="680" height="420" fill="#0d0d1a"/>

<defs>
  <pattern id="grid" width="32" height="32" patternUnits="userSpaceOnUse">
    <path d="M 32 0 L 0 0 0 32" fill="none" stroke="#7f6fff" stroke-width="0.4" opacity="0.25"/>
  </pattern>
</defs>
<rect width="680" height="420" fill="url(#grid)"/>

<rect x="24" y="24" width="632" height="372" fill="none" stroke="#7f6fff" stroke-width="1" opacity="0.5"/>
<polygon points="632,24 656,24 656,48" fill="#0d0d1a"/>
<line x1="632" y1="24" x2="656" y2="48" stroke="#7f6fff" stroke-width="1" opacity="0.5"/>

<rect x="24" y="24" width="632" height="4" fill="#a78bfa"/>
<rect x="24" y="28" width="316" height="4" fill="#f472b6"/>

<g transform="translate(340, 155)">
  <path d="M -30 0 Q -30 -36 0 -36 Q 30 -36 30 0" fill="none" stroke="#a78bfa" stroke-width="3" stroke-linecap="round"/>
  <line x1="0" y1="-36" x2="0" y2="-50" stroke="#a78bfa" stroke-width="3" stroke-linecap="round"/>
  <path d="M 0 -50 Q 10 -58 10 -64 Q 10 -72 2 -72" fill="none" stroke="#a78bfa" stroke-width="3" stroke-linecap="round"/>
  <line x1="-50" y1="0" x2="50" y2="0" stroke="#a78bfa" stroke-width="3" stroke-linecap="round"/>
  <line x1="-32" y1="0" x2="-32" y2="55" stroke="#a78bfa" stroke-width="1.5" stroke-dasharray="4 3" opacity="0.5"/>
  <line x1="32" y1="0" x2="32" y2="55" stroke="#f472b6" stroke-width="1.5" stroke-dasharray="4 3" opacity="0.5"/>
</g>

<text x="340" y="265" class="vt" font-size="38" fill="#e2deff" text-anchor="middle" letter-spacing="4">NO HAY NADA AÚN</text>
<text x="340" y="300" class="mono" font-size="13" fill="#8b80c0" text-anchor="middle" letter-spacing="2">// PROYECTO EN PROGRESO...</text>

<text x="36" y="383" class="vt" font-size="14" fill="#a78bfa" opacity="0.5" letter-spacing="2">[ TIENDA_ROPA_v0.0 ]</text>
<text x="644" y="383" class="mono" font-size="11" fill="#8b80c0" opacity="0.5" text-anchor="end">COMING SOON</text>

<rect x="32" y="32" width="5" height="5" fill="#f472b6" opacity="0.6"/>
<rect x="643" y="32" width="5" height="5" fill="#f472b6" opacity="0.6"/>
<rect x="32" y="383" width="5" height="5" fill="#a78bfa" opacity="0.6"/>
<rect x="643" y="383" width="5" height="5" fill="#a78bfa" opacity="0.6"/>

<line x1="24" y1="335" x2="656" y2="335" stroke="#7f6fff" stroke-width="0.5" stroke-dasharray="6 4" opacity="0.3"/>
</svg>
